<svg xmlns="http://www.w3.org/2000/svg" viewBox="0 0 512 512">
  <!-- Hand (left sweeping curves) -->
  <path d="M145 355 C95 320, 70 280, 85 245 C90 232, 100 228, 112 235 L170 280"
        stroke="#1a1a1a" stroke-width="22" stroke-linecap="round" stroke-linejoin="round" fill="none"/>
  <path d="M125 375 C65 340, 42 290, 65 248 C72 236, 80 232, 90 238"
        stroke="#1a1a1a" stroke-width="22" stroke-linecap="round" stroke-linejoin="round" fill="none"/>
  <!-- Pinky hint -->
  <path d="M110 385 C55 355, 35 310, 52 268"
        stroke="#1a1a1a" stroke-width="18" stroke-linecap="round" stroke-linejoin="round" fill="none"/>
  <!-- Heart (red fill with black outline) -->
  <path d="M256 340
           C256 340, 145 255, 145 185
           C145 145, 175 115, 210 115
           C235 115, 250 135, 256 150
           C262 135, 277 115, 302 115
           C337 115, 367 145, 367 185
           C367 255, 256 340, 256 340Z"
        fill="#D94425"/>
  <path d="M256 340
           C256 340, 145 255, 145 185
           C145 145, 175 115, 210 115
           C235 115, 250 135, 256 150
           C262 135, 277 115, 302 115
           C337 115, 367 145, 367 185
           C367 255, 256 340, 256 340Z"
        stroke="#1a1a1a" stroke-width="18" stroke-linejoin="round" fill="none"/>
  <!-- Right side of hand wrapping around heart -->
  <path d="M310 310 C340 285, 360 260, 355 230"
        stroke="#1a1a1a" stroke-width="20" stroke-linecap="round" stroke-linejoin="round" fill="none"/>
  <!-- NAORU text -->
  <text x="256" y="460" text-anchor="middle"
        font-family="'Helvetica Neue', Arial, sans-serif"
        font-size="62" font-weight="800" letter-spacing="18" fill="#1a1a1a">NAORU</text>
</svg>
